<?xml version="1.0" encoding="utf-8"?>
<!DOCTYPE svg PUBLIC "-//W3C//DTD SVG 20010904//EN" "http://www.w3.org/TR/2001/REC-SVG-20010904/DTD/svg10.dtd">
<svg version="1.0" width="367.5pt" height="367.5pt" viewBox="0 0 367.5 367.5" preserveAspectRatio="xMidYMid meet" xmlns="http://www.w3.org/2000/svg">
  <g transform="translate(0,367.5)scale(.075,.075)">
    <path id="path1" d="M 2280 -3960 c -344 47 -633 192 -868 434 -225 232 -336 451 -407 808 -5 26 -9 28 -55 28 l -50 0 0 240 0 240 59 0 59 0 17 72 c 25 107 87 261 146 363 213 372 554 621 980 717 139 31 436 33 569 5 391 -84 697 -283 922 -599 97 -135 191 -339 228 -496 l 12 -52 69 0 69 0 0 -245 0 -245 -60 0 -59 0 -6 -38 c -102 -611 -564 -1092 -1165 -1213 -110 -22 -361 -33 -460 -19 z m 448 80 c 496 101 898 456 1057 933 19 56 40 137 48 179 l 15 78 -84 0 c -46 0 -84 -1 -84 -3 0 -62 -86 -346 -107 -354 -25 -10 -24 3 5 83 28 74 53 167 66 242 l 6 32 -83 0 -82 0 -22 -91 c -54 -224 -215 -453 -413 -589 -455 -310 -1068 -209 -1400 231 -78 104 -145 243 -173 358 l -22 91 -83 0 c -63 0 -82 -3 -82 -14 0 -25 48 -200 75 -270 26 -69 27 -83 3 -73 -16 6 -83 204 -100 293 l -13 64 -96 0 -97 0 15 -78 c 101 -540 534 -987 1074 -1106 181 -41 398 -43 577 -6 z m -23 379 c 359 92 637 361 734 711 27 96 27 100 -7 100 -26 0 -29 -5 -51 -77 -77 -264 -261 -475 -517 -595 -143 -66 -215 -81 -399 -81 -184 0 -256 15 -399 81 -213 100 -362 248 -465 461 -21 44 -46 109 -56 145 -16 58 -21 66 -41 66 -13 0 -24 -6 -24 -13 0 -37 47 -174 90 -262 143 -294 428 -503 755 -555 92 -14 287 -4 380 19 z m -92 126 c 353 61 626 311 719 657 32 118 32 318 0 436 -80 296 -296 528 -580 622 -497 165 -1017 -115 -1154 -622 -32 -118 -32 -318 0 -436 122 -453 561 -736 1015 -657 z m -1618 893 c 1 81 4 162 8 180 6 29 4 32 -18 32 l -25 0 0 -180 c 0 -165 1 -180 18 -180 15 0 17 14 17 148 z m 251 -99 c -6 48 8 265 20 295 5 14 -6 16 -94 16 -95 0 -100 -1 -106 -22 -10 -39 -19 -263 -12 -301 l 7 -37 96 0 96 0 -7 49 z m 196 53 c -1 57 3 138 11 180 l 13 78 -82 0 c -76 0 -82 -2 -89 -22 -3 -13 -9 -94 -12 -180 l -6 -158 84 0 84 0 -3 102 z m 68 78 c 0 105 -4 180 -9 180 -13 0 -18 -21 -31 -105 -11 -78 -13 -198 -4 -233 4 -13 14 -22 25 -22 18 0 19 10 19 180 z m 1966 -143 c 8 45 -1 210 -16 281 -8 33 -17 52 -26 52 -12 0 -14 -32 -14 -185 l 0 -185 25 0 c 20 0 25 6 31 37 z m 178 -3 c 7 35 -10 293 -20 320 -5 13 -23 16 -86 16 -65 0 -79 -3 -75 -14 15 -37 28 -181 25 -264 l -3 -92 76 0 77 0 6 34 z m 200 116 c 0 80 -3 162 -8 182 l -7 38 -85 0 -85 0 8 -92 c 4 -51 8 -135 8 -186 l 0 -93 85 3 85 3 -1 145 z m 116 35 l 0 185 -36 0 c -30 0 -35 -3 -29 -18 4 -9 10 -92 13 -184 l 5 -168 23 0 24 0 0 185 z m -2670 307 c 28 93 86 210 157 316 54 80 76 102 90 89 3 -4 -21 -46 -55 -94 -69 -101 -132 -223 -157 -303 -9 -30 -18 -61 -21 -68 -3 -10 16 -12 82 -10 l 86 3 27 71 c 294 757 1294 898 1781 252 58 -77 142 -233 156 -290 6 -28 7 -28 90 -28 46 0 84 4 84 9 0 20 -52 166 -76 214 -15 29 -55 93 -90 144 -36 53 -59 95 -53 98 15 10 32 -8 93 -99 67 -99 118 -206 142 -298 l 18 -68 87 0 87 0 -9 40 c -47 212 -180 453 -344 628 -668 709 -1837 536 -2274 -336 -38 -75 -98 -241 -115 -314 l -6 -28 99 0 99 0 22 72 z m 279 -9 c 102 268 351 488 648 569 114 31 363 31 478 0 291 -80 536 -293 645 -564 21 -52 27 -58 53 -58 34 0 34 4 -22 124 -53 114 -111 197 -200 287 -133 133 -313 233 -496 275 -110 26 -320 26 -430 0 -248 -57 -476 -211 -616 -418 -43 -63 -113 -203 -124 -250 -6 -25 -4 -28 16 -28 20 0 28 11 48 63 z M 2331 -3260 c -174 37 -312 118 -428 251 -123 141 -184 302 -184 490 -2 294 154 545 422 684 47 24 115 51 150 60 87 20 279 20 361 -1 138 -36 301 -140 394 -252 347 -421 161 -1046 -361 -1212 -79 -25 -277 -36 -354 -20 z m 291 80 c 16 19 47 59 70 88 l 41 52 -58 133 c -31 72 -60 135 -64 139 -3 4 -66 8 -140 9 l -133 1 -59 -133 c -32 -74 -58 -139 -59 -146 0 -17 128 -171 148 -177 9 -2 64 -4 121 -3 l 104 3 29 34 z m -399 50 l -48 60 -63 0 c -34 0 -62 -4 -62 -8 0 -16 175 -108 213 -111 4 -1 -14 26 -40 59 z m 595 2 c 39 23 72 45 72 50 0 4 -26 8 -58 8 -63 0 -57 4 -136 -99 -19 -25 42 -4 122 41 z m -586 252 c 69 158 70 137 -14 245 l -48 61 -123 0 c -105 0 -124 -2 -134 -18 -6 -9 -33 -49 -61 -88 l -51 -71 39 -79 c 22 -43 60 -105 86 -137 l 46 -58 100 3 99 3 61 139 z m 773 -99 c 46 57 101 147 115 191 11 31 8 37 -52 121 l -64 88 -114 2 -115 3 -57 -76 c -32 -42 -58 -82 -58 -88 0 -11 103 -256 116 -278 3 -4 47 -8 98 -8 l 94 0 37 45 z m -331 351 c 31 41 56 78 56 82 0 4 -27 68 -59 142 l -59 135 -138 0 -139 0 -57 -130 c -31 -71 -57 -136 -57 -143 -1 -7 24 -46 55 -87 l 56 -75 143 0 143 0 56 76 z m 494 77 c 2 67 0 137 -4 155 l -9 32 -53 -91 c -29 -49 -52 -94 -50 -98 2 -4 23 -37 48 -74 28 -41 49 -62 55 -56 5 5 11 64 13 132 z m -1333 -67 c 25 37 45 69 43 73 -2 3 -23 42 -47 85 -31 56 -46 74 -52 65 -15 -24 -9 -289 7 -289 1 0 23 30 49 66 z m 396 234 c 32 74 59 140 59 145 0 5 -28 45 -61 87 l -60 78 -125 0 -124 0 -39 -59 c -21 -33 -48 -84 -60 -114 l -22 -54 63 -112 63 -112 123 3 124 3 59 135 z m 841 -23 l 66 116 -24 56 c -14 31 -40 80 -60 109 l -34 52 -120 0 -120 0 -48 -61 c -82 -106 -80 -98 -47 -176 16 -37 44 -101 62 -141 l 32 -72 113 0 113 0 67 117 z m -398 278 c 31 41 56 77 56 81 0 4 -19 54 -42 110 -49 122 -44 119 -223 119 -160 0 -155 3 -204 -115 -22 -55 -41 -106 -41 -112 0 -6 25 -45 56 -85 l 56 -73 143 0 143 0 56 75 z m -504 111 c 9 9 69 159 65 163 -2 2 -37 -13 -77 -33 -79 -39 -194 -126 -179 -135 11 -7 183 -2 191 5 z m 770 25 c -48 43 -132 96 -185 119 -25 11 -45 18 -45 16 0 -5 52 -130 61 -148 8 -15 24 -18 107 -18 l 97 1 -35 30 z " />
  </g>
</svg>